<svg width="36" height="36" viewBox="0 0 36 36" fill="none" xmlns="http://www.w3.org/2000/svg">
<path fill-rule="evenodd" clip-rule="evenodd" d="M22.1688 5.4918C22.3931 5.56645 22.6006 5.68457 22.7793 5.83941C22.958 5.99426 23.1044 6.18279 23.2102 6.39425C23.316 6.6057 23.3791 6.83593 23.3959 7.07178C23.4127 7.30763 23.3829 7.54448 23.3082 7.7688L16.1082 29.3688C15.9573 29.8218 15.6327 30.1964 15.2056 30.4101C14.7786 30.6238 14.2842 30.6591 13.8312 30.5082C13.3781 30.3573 13.0036 30.0327 12.7899 29.6057C12.5762 29.1787 12.5409 28.6842 12.6918 28.2312L19.8918 6.6312C19.9664 6.40684 20.0845 6.19939 20.2394 6.0207C20.3942 5.84201 20.5828 5.69557 20.7942 5.58976C21.0057 5.48395 21.2359 5.42084 21.4717 5.40403C21.7076 5.38722 21.9444 5.41705 22.1688 5.4918ZM10.2726 11.3274C10.61 11.6649 10.7996 12.1227 10.7996 12.6C10.7996 13.0773 10.61 13.535 10.2726 13.8726L6.14517 18L10.2726 22.1274C10.4445 22.2934 10.5816 22.4921 10.676 22.7117C10.7703 22.9313 10.8199 23.1675 10.822 23.4065C10.8241 23.6455 10.7786 23.8825 10.688 24.1037C10.5975 24.3249 10.4639 24.5259 10.2949 24.6949C10.1259 24.8639 9.9249 24.9976 9.70369 25.0881C9.48247 25.1786 9.24545 25.2241 9.00645 25.222C8.76744 25.22 8.53125 25.1703 8.31164 25.076C8.09203 24.9816 7.89341 24.8445 7.72737 24.6726L2.32737 19.2726C1.98992 18.935 1.80035 18.4773 1.80035 18C1.80035 17.5227 1.98992 17.0649 2.32737 16.7274L7.72737 11.3274C8.06492 10.99 8.52267 10.8004 8.99997 10.8004C9.47726 10.8004 9.93502 10.99 10.2726 11.3274ZM25.7274 11.3274C26.0649 10.99 26.5227 10.8004 27 10.8004C27.4773 10.8004 27.935 10.99 28.2726 11.3274L33.6726 16.7274C34.01 17.0649 34.1996 17.5227 34.1996 18C34.1996 18.4773 34.01 18.935 33.6726 19.2726L28.2726 24.6726C28.1065 24.8445 27.9079 24.9816 27.6883 25.076C27.4687 25.1703 27.2325 25.22 26.9935 25.222C26.7545 25.2241 26.5175 25.1786 26.2963 25.0881C26.075 24.9976 25.8741 24.8639 25.7051 24.6949C25.5361 24.5259 25.4024 24.3249 25.3119 24.1037C25.2214 23.8825 25.1758 23.6455 25.1779 23.4065C25.18 23.1675 25.2296 22.9313 25.324 22.7117C25.4183 22.4921 25.5555 22.2934 25.7274 22.1274L29.8548 18L25.7274 13.8726C25.3899 13.535 25.2004 13.0773 25.2004 12.6C25.2004 12.1227 25.3899 11.6649 25.7274 11.3274Z" fill="#EAE8FF"/>
</svg>
