<svg width="36" height="36" viewBox="0 0 36 36" fill="none" xmlns="http://www.w3.org/2000/svg">
<path d="M3.59998 5.4C3.59998 4.92261 3.78962 4.46477 4.12718 4.12721C4.46475 3.78964 4.92259 3.6 5.39998 3.6H9.27537C9.70145 3.60019 10.1136 3.75152 10.4386 4.02707C10.7636 4.30261 10.9803 4.6845 11.0502 5.1048L12.3822 13.0878C12.4458 13.468 12.3857 13.8586 12.2107 14.2021C12.0358 14.5455 11.7551 14.8238 11.4102 14.9958L8.62378 16.3872C9.62297 18.8634 11.1111 21.1127 12.9992 23.0008C14.8873 24.8889 17.1366 26.377 19.6128 27.3762L21.006 24.5898C21.1779 24.2452 21.4559 23.9648 21.799 23.7898C22.1421 23.6149 22.5323 23.5546 22.9122 23.6178L30.8952 24.9498C31.3155 25.0197 31.6974 25.2364 31.9729 25.5614C32.2484 25.8863 32.3998 26.2985 32.4 26.7246V30.6C32.4 31.0774 32.2103 31.5352 31.8728 31.8728C31.5352 32.2104 31.0774 32.4 30.6 32.4H27C14.076 32.4 3.59998 21.924 3.59998 9V5.4Z" fill="#EAE8FF"/>
</svg>
