<svg width="36" height="36" viewBox="0 0 36 36" fill="none" xmlns="http://www.w3.org/2000/svg">
<path d="M36 18C36 8.05888 27.9411 1.14441e-05 18 1.14441e-05C8.05887 1.14441e-05 0 8.05888 0 18C0 26.9843 6.58234 34.431 15.1875 35.7813V23.2031H10.6172V18H15.1875V14.0344C15.1875 9.52314 17.8748 7.03126 21.9864 7.03126C23.9557 7.03126 26.0156 7.38282 26.0156 7.38282V11.8125H23.7459C21.5098 11.8125 20.8125 13.2 20.8125 14.6235V18H25.8047L25.0066 23.2031H20.8125V35.7813C29.4177 34.431 36 26.9843 36 18Z" fill="#1877F2"/>
<path d="M25.0066 23.2031L25.8047 18H20.8125V14.6235C20.8125 13.2 21.5098 11.8125 23.7459 11.8125H26.0156V7.38283C26.0156 7.38283 23.9557 7.03127 21.9864 7.03127C17.8748 7.03127 15.1875 9.52314 15.1875 14.0344V18H10.6172V23.2031H15.1875V35.7813C16.1039 35.9251 17.0432 36 18 36C18.9568 36 19.8961 35.9251 20.8125 35.7813V23.2031H25.0066Z" fill="white"/>
</svg>
