<svg width="36" height="36" viewBox="0 0 36 36" fill="none" xmlns="http://www.w3.org/2000/svg">
<path fill-rule="evenodd" clip-rule="evenodd" d="M8.99998 9C9 7.95758 9.30174 6.93745 9.86877 6.06275C10.4358 5.18804 11.2439 4.49615 12.1955 4.0706C13.1471 3.64504 14.2015 3.50401 15.2315 3.66453C16.2615 3.82505 17.223 4.28026 18 4.9752C18.8935 4.17439 20.0283 3.69397 21.2252 3.60978C22.4221 3.52559 23.6129 3.84243 24.6097 4.51027C25.6065 5.17812 26.3525 6.15893 26.7299 7.29788C27.1074 8.43683 27.0947 9.66905 26.694 10.8H28.8C29.7548 10.8 30.6704 11.1793 31.3456 11.8544C32.0207 12.5296 32.4 13.4452 32.4 14.4C32.4 15.3548 32.0207 16.2705 31.3456 16.9456C30.6704 17.6207 29.7548 18 28.8 18H19.8V16.2C19.8 15.7226 19.6103 15.2648 19.2728 14.9272C18.9352 14.5896 18.4774 14.4 18 14.4C17.5226 14.4 17.0647 14.5896 16.7272 14.9272C16.3896 15.2648 16.2 15.7226 16.2 16.2V18H7.19998C6.2452 18 5.32952 17.6207 4.65439 16.9456C3.97926 16.2705 3.59998 15.3548 3.59998 14.4C3.59998 13.4452 3.97926 12.5296 4.65439 11.8544C5.32952 11.1793 6.2452 10.8 7.19998 10.8H9.30597C9.10798 10.2366 8.99998 9.63 8.99998 9ZM16.2 10.8V9C16.2 8.644 16.0944 8.29599 15.8966 7.99998C15.6988 7.70397 15.4177 7.47326 15.0888 7.33702C14.7599 7.20078 14.398 7.16514 14.0488 7.23459C13.6996 7.30404 13.3789 7.47548 13.1272 7.72721C12.8754 7.97895 12.704 8.29967 12.6346 8.64884C12.5651 8.99801 12.6008 9.35993 12.737 9.68883C12.8732 10.0177 13.1039 10.2989 13.3999 10.4966C13.696 10.6944 14.044 10.8 14.4 10.8H16.2ZM21.6 10.8C21.956 10.8 22.304 10.6944 22.6 10.4966C22.896 10.2989 23.1267 10.0177 23.263 9.68883C23.3992 9.35993 23.4348 8.99801 23.3654 8.64884C23.2959 8.29967 23.1245 7.97895 22.8728 7.72721C22.621 7.47548 22.3003 7.30404 21.9511 7.23459C21.602 7.16514 21.24 7.20078 20.9111 7.33702C20.5822 7.47326 20.3011 7.70397 20.1033 7.99998C19.9055 8.29599 19.8 8.644 19.8 9V10.8H21.6Z" fill="#EAE8FF"/>
<path d="M16.2 19.8H5.40002V28.8C5.40002 29.7548 5.77931 30.6705 6.45444 31.3456C7.12957 32.0207 8.04525 32.4 9.00002 32.4H16.2V19.8ZM19.8 32.4H27C27.9548 32.4 28.8705 32.0207 29.5456 31.3456C30.2207 30.6705 30.6 29.7548 30.6 28.8V19.8H19.8V32.4Z" fill="#EAE8FF"/>
</svg>
