<svg width="36" height="36" viewBox="0 0 36 36" fill="none" xmlns="http://www.w3.org/2000/svg">
<path d="M19.2726 4.12739C18.9351 3.78994 18.4773 3.60037 18 3.60037C17.5227 3.60037 17.065 3.78994 16.7274 4.12739L4.12741 16.7274C3.79953 17.0669 3.6181 17.5216 3.6222 17.9935C3.6263 18.4655 3.8156 18.9169 4.14934 19.2507C4.48307 19.5844 4.93454 19.7737 5.40649 19.7778C5.87844 19.7819 6.33313 19.6005 6.67261 19.2726L7.20001 18.7452V30.6C7.20001 31.0774 7.38966 31.5352 7.72722 31.8728C8.06479 32.2103 8.52262 32.4 9.00001 32.4H12.6C13.0774 32.4 13.5352 32.2103 13.8728 31.8728C14.2104 31.5352 14.4 31.0774 14.4 30.6V27C14.4 26.5226 14.5897 26.0648 14.9272 25.7272C15.2648 25.3896 15.7226 25.2 16.2 25.2H19.8C20.2774 25.2 20.7352 25.3896 21.0728 25.7272C21.4104 26.0648 21.6 26.5226 21.6 27V30.6C21.6 31.0774 21.7897 31.5352 22.1272 31.8728C22.4648 32.2103 22.9226 32.4 23.4 32.4H27C27.4774 32.4 27.9352 32.2103 28.2728 31.8728C28.6104 31.5352 28.8 31.0774 28.8 30.6V18.7452L29.3274 19.2726C29.6669 19.6005 30.1216 19.7819 30.5935 19.7778C31.0655 19.7737 31.517 19.5844 31.8507 19.2507C32.1844 18.9169 32.3737 18.4655 32.3778 17.9935C32.3819 17.5216 32.2005 17.0669 31.8726 16.7274L19.2726 4.12739Z" fill="#EAE8FF"/>
</svg>
