<svg width="28" height="16" viewBox="0 0 28 16" fill="none" xmlns="http://www.w3.org/2000/svg">
<path fill-rule="evenodd" clip-rule="evenodd" d="M0 2C0 1.46957 0.210714 0.96086 0.585786 0.585787C0.960859 0.210714 1.46957 0 2 0H26C26.5304 0 27.0391 0.210714 27.4142 0.585787C27.7893 0.96086 28 1.46957 28 2C28 2.53043 27.7893 3.03914 27.4142 3.41421C27.0391 3.78929 26.5304 4 26 4H2C1.46957 4 0.960859 3.78929 0.585786 3.41421C0.210714 3.03914 0 2.53043 0 2ZM0 14C0 13.4696 0.210714 12.9609 0.585786 12.5858C0.960859 12.2107 1.46957 12 2 12H26C26.5304 12 27.0391 12.2107 27.4142 12.5858C27.7893 12.9609 28 13.4696 28 14C28 14.5304 27.7893 15.0391 27.4142 15.4142C27.0391 15.7893 26.5304 16 26 16H2C1.46957 16 0.960859 15.7893 0.585786 15.4142C0.210714 15.0391 0 14.5304 0 14Z" fill="#EAE8FF"/>
</svg>
