<svg width="45" height="36" viewBox="0 0 45 36" fill="none" xmlns="http://www.w3.org/2000/svg">
<path d="M13.9415 36C30.671 36 39.8196 22.1512 39.8196 10.142C39.8196 9.74866 39.8116 9.35709 39.794 8.96728C41.5698 7.68446 43.1134 6.08361 44.3308 4.26124C42.7012 4.98504 40.9474 5.47229 39.1077 5.692C40.9855 4.56688 42.4271 2.78706 43.1073 0.66533C41.35 1.70629 39.4039 2.46287 37.3319 2.87135C35.6721 1.10487 33.3093 0 30.6929 0C25.6702 0 21.5972 4.07001 21.5972 9.08687C21.5972 9.80003 21.677 10.4937 21.833 11.1591C14.2738 10.779 7.57088 7.16267 3.0849 1.66376C2.30379 3.00682 1.8534 4.56692 1.8534 6.23158C1.8534 9.3846 3.4591 12.1681 5.90083 13.7965C4.40863 13.7504 3.00687 13.3411 1.7817 12.6598C1.78036 12.698 1.78035 12.7351 1.78035 12.7759C1.78035 17.1772 4.91545 20.852 9.07714 21.6847C8.31287 21.8929 7.50877 22.0045 6.67884 22.0045C6.09368 22.0045 5.52357 21.947 4.96945 21.8406C6.12736 25.4516 9.48503 28.0793 13.4658 28.1528C10.3529 30.5908 6.43146 32.0429 2.16951 32.0429C1.43628 32.0429 0.711916 32.0012 0 31.9171C4.02527 34.4952 8.80491 35.9994 13.942 35.9994" fill="#1DA1F2"/>
</svg>
