<svg width="52" height="36" viewBox="0 0 52 36" fill="none" xmlns="http://www.w3.org/2000/svg">
<path d="M50.0671 5.63294C49.4776 3.43059 47.7511 1.69412 45.5615 1.10118C41.5611 0 25.5599 0 25.5599 0C25.5599 0 9.55864 0 5.55833 1.05882C3.41079 1.65176 1.64223 3.43059 1.05271 5.63294C0 9.65647 0 18 0 18C0 18 0 26.3859 1.05271 30.3671C1.64223 32.5694 3.36868 34.3059 5.55833 34.8988C9.60075 36 25.5599 36 25.5599 36C25.5599 36 41.5611 36 45.5615 34.9412C47.7511 34.3482 49.4776 32.6118 50.0671 30.4094C51.1198 26.3859 51.1198 18.0424 51.1198 18.0424C51.1198 18.0424 51.1619 9.65647 50.0671 5.63294Z" fill="#FF0000"/>
<path d="M33.7711 18L20.4648 10.2918V25.7082L33.7711 18Z" fill="white"/>
</svg>
